<svg xmlns="http://www.w3.org/2000/svg" xmlns:xlink="http://www.w3.org/1999/xlink" width="336" height="180" viewBox="0 0 336 180">
  <defs>
    <clipPath id="clip-path">
      <rect width="336" height="180" fill="none"/>
    </clipPath>
  </defs>
  <g id="Repeat_Grid_1" data-name="Repeat Grid 1" clip-path="url(#clip-path)">
    <g transform="translate(-800 -2903)">
      <circle id="Ellipse_1" data-name="Ellipse 1" cx="3.5" cy="3.5" r="3.5" transform="translate(800 2903)" fill="#72c6ef"/>
    </g>
    <g transform="translate(-777 -2903)">
      <circle id="Ellipse_1-2" data-name="Ellipse 1" cx="3.5" cy="3.5" r="3.5" transform="translate(800 2903)" fill="#72c6ef"/>
    </g>
    <g transform="translate(-754 -2903)">
      <circle id="Ellipse_1-3" data-name="Ellipse 1" cx="3.5" cy="3.5" r="3.5" transform="translate(800 2903)" fill="#72c6ef"/>
    </g>
    <g transform="translate(-731 -2903)">
      <circle id="Ellipse_1-4" data-name="Ellipse 1" cx="3.5" cy="3.5" r="3.5" transform="translate(800 2903)" fill="#72c6ef"/>
    </g>
    <g transform="translate(-708 -2903)">
      <circle id="Ellipse_1-5" data-name="Ellipse 1" cx="3.5" cy="3.5" r="3.5" transform="translate(800 2903)" fill="#72c6ef"/>
    </g>
    <g transform="translate(-685 -2903)">
      <circle id="Ellipse_1-6" data-name="Ellipse 1" cx="3.5" cy="3.5" r="3.5" transform="translate(800 2903)" fill="#72c6ef"/>
    </g>
    <g transform="translate(-662 -2903)">
      <circle id="Ellipse_1-7" data-name="Ellipse 1" cx="3.5" cy="3.5" r="3.5" transform="translate(800 2903)" fill="#72c6ef"/>
    </g>
    <g transform="translate(-639 -2903)">
      <circle id="Ellipse_1-8" data-name="Ellipse 1" cx="3.5" cy="3.5" r="3.5" transform="translate(800 2903)" fill="#72c6ef"/>
    </g>
    <g transform="translate(-616 -2903)">
      <circle id="Ellipse_1-9" data-name="Ellipse 1" cx="3.5" cy="3.5" r="3.5" transform="translate(800 2903)" fill="#72c6ef"/>
    </g>
    <g transform="translate(-593 -2903)">
      <circle id="Ellipse_1-10" data-name="Ellipse 1" cx="3.5" cy="3.5" r="3.5" transform="translate(800 2903)" fill="#72c6ef"/>
    </g>
    <g transform="translate(-570 -2903)">
      <circle id="Ellipse_1-11" data-name="Ellipse 1" cx="3.5" cy="3.5" r="3.5" transform="translate(800 2903)" fill="#72c6ef"/>
    </g>
    <g transform="translate(-547 -2903)">
      <circle id="Ellipse_1-12" data-name="Ellipse 1" cx="3.5" cy="3.5" r="3.5" transform="translate(800 2903)" fill="#72c6ef"/>
    </g>
    <g transform="translate(-524 -2903)">
      <circle id="Ellipse_1-13" data-name="Ellipse 1" cx="3.5" cy="3.5" r="3.5" transform="translate(800 2903)" fill="#72c6ef"/>
    </g>
    <g transform="translate(-501 -2903)">
      <circle id="Ellipse_1-14" data-name="Ellipse 1" cx="3.5" cy="3.5" r="3.5" transform="translate(800 2903)" fill="#72c6ef"/>
    </g>
    <g transform="translate(-478 -2903)">
      <circle id="Ellipse_1-15" data-name="Ellipse 1" cx="3.5" cy="3.5" r="3.5" transform="translate(800 2903)" fill="#72c6ef"/>
    </g>
    <g transform="translate(-800 -2880)">
      <circle id="Ellipse_1-16" data-name="Ellipse 1" cx="3.5" cy="3.5" r="3.5" transform="translate(800 2903)" fill="#72c6ef"/>
    </g>
    <g transform="translate(-777 -2880)">
      <circle id="Ellipse_1-17" data-name="Ellipse 1" cx="3.5" cy="3.5" r="3.5" transform="translate(800 2903)" fill="#72c6ef"/>
    </g>
    <g transform="translate(-754 -2880)">
      <circle id="Ellipse_1-18" data-name="Ellipse 1" cx="3.5" cy="3.5" r="3.5" transform="translate(800 2903)" fill="#72c6ef"/>
    </g>
    <g transform="translate(-731 -2880)">
      <circle id="Ellipse_1-19" data-name="Ellipse 1" cx="3.5" cy="3.5" r="3.5" transform="translate(800 2903)" fill="#72c6ef"/>
    </g>
    <g transform="translate(-708 -2880)">
      <circle id="Ellipse_1-20" data-name="Ellipse 1" cx="3.5" cy="3.5" r="3.5" transform="translate(800 2903)" fill="#72c6ef"/>
    </g>
    <g transform="translate(-685 -2880)">
      <circle id="Ellipse_1-21" data-name="Ellipse 1" cx="3.5" cy="3.5" r="3.5" transform="translate(800 2903)" fill="#72c6ef"/>
    </g>
    <g transform="translate(-662 -2880)">
      <circle id="Ellipse_1-22" data-name="Ellipse 1" cx="3.5" cy="3.5" r="3.5" transform="translate(800 2903)" fill="#72c6ef"/>
    </g>
    <g transform="translate(-639 -2880)">
      <circle id="Ellipse_1-23" data-name="Ellipse 1" cx="3.5" cy="3.5" r="3.5" transform="translate(800 2903)" fill="#72c6ef"/>
    </g>
    <g transform="translate(-616 -2880)">
      <circle id="Ellipse_1-24" data-name="Ellipse 1" cx="3.5" cy="3.5" r="3.5" transform="translate(800 2903)" fill="#72c6ef"/>
    </g>
    <g transform="translate(-593 -2880)">
      <circle id="Ellipse_1-25" data-name="Ellipse 1" cx="3.5" cy="3.5" r="3.5" transform="translate(800 2903)" fill="#72c6ef"/>
    </g>
    <g transform="translate(-570 -2880)">
      <circle id="Ellipse_1-26" data-name="Ellipse 1" cx="3.5" cy="3.5" r="3.5" transform="translate(800 2903)" fill="#72c6ef"/>
    </g>
    <g transform="translate(-547 -2880)">
      <circle id="Ellipse_1-27" data-name="Ellipse 1" cx="3.5" cy="3.5" r="3.5" transform="translate(800 2903)" fill="#72c6ef"/>
    </g>
    <g transform="translate(-524 -2880)">
      <circle id="Ellipse_1-28" data-name="Ellipse 1" cx="3.5" cy="3.5" r="3.5" transform="translate(800 2903)" fill="#72c6ef"/>
    </g>
    <g transform="translate(-501 -2880)">
      <circle id="Ellipse_1-29" data-name="Ellipse 1" cx="3.5" cy="3.5" r="3.5" transform="translate(800 2903)" fill="#72c6ef"/>
    </g>
    <g transform="translate(-478 -2880)">
      <circle id="Ellipse_1-30" data-name="Ellipse 1" cx="3.5" cy="3.5" r="3.5" transform="translate(800 2903)" fill="#72c6ef"/>
    </g>
    <g transform="translate(-800 -2857)">
      <circle id="Ellipse_1-31" data-name="Ellipse 1" cx="3.5" cy="3.5" r="3.5" transform="translate(800 2903)" fill="#72c6ef"/>
    </g>
    <g transform="translate(-777 -2857)">
      <circle id="Ellipse_1-32" data-name="Ellipse 1" cx="3.5" cy="3.5" r="3.5" transform="translate(800 2903)" fill="#72c6ef"/>
    </g>
    <g transform="translate(-754 -2857)">
      <circle id="Ellipse_1-33" data-name="Ellipse 1" cx="3.5" cy="3.5" r="3.5" transform="translate(800 2903)" fill="#72c6ef"/>
    </g>
    <g transform="translate(-731 -2857)">
      <circle id="Ellipse_1-34" data-name="Ellipse 1" cx="3.5" cy="3.5" r="3.5" transform="translate(800 2903)" fill="#72c6ef"/>
    </g>
    <g transform="translate(-708 -2857)">
      <circle id="Ellipse_1-35" data-name="Ellipse 1" cx="3.5" cy="3.5" r="3.5" transform="translate(800 2903)" fill="#72c6ef"/>
    </g>
    <g transform="translate(-685 -2857)">
      <circle id="Ellipse_1-36" data-name="Ellipse 1" cx="3.5" cy="3.5" r="3.5" transform="translate(800 2903)" fill="#72c6ef"/>
    </g>
    <g transform="translate(-662 -2857)">
      <circle id="Ellipse_1-37" data-name="Ellipse 1" cx="3.5" cy="3.5" r="3.5" transform="translate(800 2903)" fill="#72c6ef"/>
    </g>
    <g transform="translate(-639 -2857)">
      <circle id="Ellipse_1-38" data-name="Ellipse 1" cx="3.5" cy="3.5" r="3.5" transform="translate(800 2903)" fill="#72c6ef"/>
    </g>
    <g transform="translate(-616 -2857)">
      <circle id="Ellipse_1-39" data-name="Ellipse 1" cx="3.5" cy="3.5" r="3.5" transform="translate(800 2903)" fill="#72c6ef"/>
    </g>
    <g transform="translate(-593 -2857)">
      <circle id="Ellipse_1-40" data-name="Ellipse 1" cx="3.5" cy="3.5" r="3.5" transform="translate(800 2903)" fill="#72c6ef"/>
    </g>
    <g transform="translate(-570 -2857)">
      <circle id="Ellipse_1-41" data-name="Ellipse 1" cx="3.5" cy="3.5" r="3.5" transform="translate(800 2903)" fill="#72c6ef"/>
    </g>
    <g transform="translate(-547 -2857)">
      <circle id="Ellipse_1-42" data-name="Ellipse 1" cx="3.5" cy="3.5" r="3.5" transform="translate(800 2903)" fill="#72c6ef"/>
    </g>
    <g transform="translate(-524 -2857)">
      <circle id="Ellipse_1-43" data-name="Ellipse 1" cx="3.5" cy="3.5" r="3.5" transform="translate(800 2903)" fill="#72c6ef"/>
    </g>
    <g transform="translate(-501 -2857)">
      <circle id="Ellipse_1-44" data-name="Ellipse 1" cx="3.5" cy="3.5" r="3.5" transform="translate(800 2903)" fill="#72c6ef"/>
    </g>
    <g transform="translate(-478 -2857)">
      <circle id="Ellipse_1-45" data-name="Ellipse 1" cx="3.5" cy="3.5" r="3.5" transform="translate(800 2903)" fill="#72c6ef"/>
    </g>
    <g transform="translate(-800 -2834)">
      <circle id="Ellipse_1-46" data-name="Ellipse 1" cx="3.5" cy="3.5" r="3.5" transform="translate(800 2903)" fill="#72c6ef"/>
    </g>
    <g transform="translate(-777 -2834)">
      <circle id="Ellipse_1-47" data-name="Ellipse 1" cx="3.5" cy="3.5" r="3.5" transform="translate(800 2903)" fill="#72c6ef"/>
    </g>
    <g transform="translate(-754 -2834)">
      <circle id="Ellipse_1-48" data-name="Ellipse 1" cx="3.5" cy="3.5" r="3.5" transform="translate(800 2903)" fill="#72c6ef"/>
    </g>
    <g transform="translate(-731 -2834)">
      <circle id="Ellipse_1-49" data-name="Ellipse 1" cx="3.5" cy="3.5" r="3.5" transform="translate(800 2903)" fill="#72c6ef"/>
    </g>
    <g transform="translate(-708 -2834)">
      <circle id="Ellipse_1-50" data-name="Ellipse 1" cx="3.5" cy="3.5" r="3.5" transform="translate(800 2903)" fill="#72c6ef"/>
    </g>
    <g transform="translate(-685 -2834)">
      <circle id="Ellipse_1-51" data-name="Ellipse 1" cx="3.5" cy="3.5" r="3.5" transform="translate(800 2903)" fill="#72c6ef"/>
    </g>
    <g transform="translate(-662 -2834)">
      <circle id="Ellipse_1-52" data-name="Ellipse 1" cx="3.5" cy="3.5" r="3.5" transform="translate(800 2903)" fill="#72c6ef"/>
    </g>
    <g transform="translate(-639 -2834)">
      <circle id="Ellipse_1-53" data-name="Ellipse 1" cx="3.5" cy="3.5" r="3.5" transform="translate(800 2903)" fill="#72c6ef"/>
    </g>
    <g transform="translate(-616 -2834)">
      <circle id="Ellipse_1-54" data-name="Ellipse 1" cx="3.5" cy="3.5" r="3.5" transform="translate(800 2903)" fill="#72c6ef"/>
    </g>
    <g transform="translate(-593 -2834)">
      <circle id="Ellipse_1-55" data-name="Ellipse 1" cx="3.5" cy="3.5" r="3.5" transform="translate(800 2903)" fill="#72c6ef"/>
    </g>
    <g transform="translate(-570 -2834)">
      <circle id="Ellipse_1-56" data-name="Ellipse 1" cx="3.5" cy="3.5" r="3.5" transform="translate(800 2903)" fill="#72c6ef"/>
    </g>
    <g transform="translate(-547 -2834)">
      <circle id="Ellipse_1-57" data-name="Ellipse 1" cx="3.5" cy="3.5" r="3.5" transform="translate(800 2903)" fill="#72c6ef"/>
    </g>
    <g transform="translate(-524 -2834)">
      <circle id="Ellipse_1-58" data-name="Ellipse 1" cx="3.5" cy="3.5" r="3.5" transform="translate(800 2903)" fill="#72c6ef"/>
    </g>
    <g transform="translate(-501 -2834)">
      <circle id="Ellipse_1-59" data-name="Ellipse 1" cx="3.5" cy="3.5" r="3.5" transform="translate(800 2903)" fill="#72c6ef"/>
    </g>
    <g transform="translate(-478 -2834)">
      <circle id="Ellipse_1-60" data-name="Ellipse 1" cx="3.5" cy="3.5" r="3.5" transform="translate(800 2903)" fill="#72c6ef"/>
    </g>
    <g transform="translate(-800 -2811)">
      <circle id="Ellipse_1-61" data-name="Ellipse 1" cx="3.5" cy="3.5" r="3.5" transform="translate(800 2903)" fill="#72c6ef"/>
    </g>
    <g transform="translate(-777 -2811)">
      <circle id="Ellipse_1-62" data-name="Ellipse 1" cx="3.5" cy="3.5" r="3.5" transform="translate(800 2903)" fill="#72c6ef"/>
    </g>
    <g transform="translate(-754 -2811)">
      <circle id="Ellipse_1-63" data-name="Ellipse 1" cx="3.5" cy="3.5" r="3.5" transform="translate(800 2903)" fill="#72c6ef"/>
    </g>
    <g transform="translate(-731 -2811)">
      <circle id="Ellipse_1-64" data-name="Ellipse 1" cx="3.5" cy="3.5" r="3.5" transform="translate(800 2903)" fill="#72c6ef"/>
    </g>
    <g transform="translate(-708 -2811)">
      <circle id="Ellipse_1-65" data-name="Ellipse 1" cx="3.5" cy="3.5" r="3.5" transform="translate(800 2903)" fill="#72c6ef"/>
    </g>
    <g transform="translate(-685 -2811)">
      <circle id="Ellipse_1-66" data-name="Ellipse 1" cx="3.5" cy="3.5" r="3.5" transform="translate(800 2903)" fill="#72c6ef"/>
    </g>
    <g transform="translate(-662 -2811)">
      <circle id="Ellipse_1-67" data-name="Ellipse 1" cx="3.5" cy="3.5" r="3.5" transform="translate(800 2903)" fill="#72c6ef"/>
    </g>
    <g transform="translate(-639 -2811)">
      <circle id="Ellipse_1-68" data-name="Ellipse 1" cx="3.5" cy="3.5" r="3.5" transform="translate(800 2903)" fill="#72c6ef"/>
    </g>
    <g transform="translate(-616 -2811)">
      <circle id="Ellipse_1-69" data-name="Ellipse 1" cx="3.5" cy="3.5" r="3.5" transform="translate(800 2903)" fill="#72c6ef"/>
    </g>
    <g transform="translate(-593 -2811)">
      <circle id="Ellipse_1-70" data-name="Ellipse 1" cx="3.5" cy="3.5" r="3.5" transform="translate(800 2903)" fill="#72c6ef"/>
    </g>
    <g transform="translate(-570 -2811)">
      <circle id="Ellipse_1-71" data-name="Ellipse 1" cx="3.5" cy="3.5" r="3.5" transform="translate(800 2903)" fill="#72c6ef"/>
    </g>
    <g transform="translate(-547 -2811)">
      <circle id="Ellipse_1-72" data-name="Ellipse 1" cx="3.5" cy="3.5" r="3.5" transform="translate(800 2903)" fill="#72c6ef"/>
    </g>
    <g transform="translate(-524 -2811)">
      <circle id="Ellipse_1-73" data-name="Ellipse 1" cx="3.5" cy="3.5" r="3.5" transform="translate(800 2903)" fill="#72c6ef"/>
    </g>
    <g transform="translate(-501 -2811)">
      <circle id="Ellipse_1-74" data-name="Ellipse 1" cx="3.5" cy="3.5" r="3.5" transform="translate(800 2903)" fill="#72c6ef"/>
    </g>
    <g transform="translate(-478 -2811)">
      <circle id="Ellipse_1-75" data-name="Ellipse 1" cx="3.5" cy="3.5" r="3.5" transform="translate(800 2903)" fill="#72c6ef"/>
    </g>
    <g transform="translate(-800 -2788)">
      <circle id="Ellipse_1-76" data-name="Ellipse 1" cx="3.5" cy="3.5" r="3.5" transform="translate(800 2903)" fill="#72c6ef"/>
    </g>
    <g transform="translate(-777 -2788)">
      <circle id="Ellipse_1-77" data-name="Ellipse 1" cx="3.5" cy="3.5" r="3.5" transform="translate(800 2903)" fill="#72c6ef"/>
    </g>
    <g transform="translate(-754 -2788)">
      <circle id="Ellipse_1-78" data-name="Ellipse 1" cx="3.5" cy="3.5" r="3.5" transform="translate(800 2903)" fill="#72c6ef"/>
    </g>
    <g transform="translate(-731 -2788)">
      <circle id="Ellipse_1-79" data-name="Ellipse 1" cx="3.5" cy="3.5" r="3.5" transform="translate(800 2903)" fill="#72c6ef"/>
    </g>
    <g transform="translate(-708 -2788)">
      <circle id="Ellipse_1-80" data-name="Ellipse 1" cx="3.5" cy="3.5" r="3.5" transform="translate(800 2903)" fill="#72c6ef"/>
    </g>
    <g transform="translate(-685 -2788)">
      <circle id="Ellipse_1-81" data-name="Ellipse 1" cx="3.5" cy="3.5" r="3.5" transform="translate(800 2903)" fill="#72c6ef"/>
    </g>
    <g transform="translate(-662 -2788)">
      <circle id="Ellipse_1-82" data-name="Ellipse 1" cx="3.5" cy="3.5" r="3.5" transform="translate(800 2903)" fill="#72c6ef"/>
    </g>
    <g transform="translate(-639 -2788)">
      <circle id="Ellipse_1-83" data-name="Ellipse 1" cx="3.5" cy="3.5" r="3.5" transform="translate(800 2903)" fill="#72c6ef"/>
    </g>
    <g transform="translate(-616 -2788)">
      <circle id="Ellipse_1-84" data-name="Ellipse 1" cx="3.5" cy="3.5" r="3.5" transform="translate(800 2903)" fill="#72c6ef"/>
    </g>
    <g transform="translate(-593 -2788)">
      <circle id="Ellipse_1-85" data-name="Ellipse 1" cx="3.5" cy="3.5" r="3.5" transform="translate(800 2903)" fill="#72c6ef"/>
    </g>
    <g transform="translate(-570 -2788)">
      <circle id="Ellipse_1-86" data-name="Ellipse 1" cx="3.5" cy="3.5" r="3.5" transform="translate(800 2903)" fill="#72c6ef"/>
    </g>
    <g transform="translate(-547 -2788)">
      <circle id="Ellipse_1-87" data-name="Ellipse 1" cx="3.5" cy="3.5" r="3.5" transform="translate(800 2903)" fill="#72c6ef"/>
    </g>
    <g transform="translate(-524 -2788)">
      <circle id="Ellipse_1-88" data-name="Ellipse 1" cx="3.5" cy="3.5" r="3.5" transform="translate(800 2903)" fill="#72c6ef"/>
    </g>
    <g transform="translate(-501 -2788)">
      <circle id="Ellipse_1-89" data-name="Ellipse 1" cx="3.5" cy="3.5" r="3.5" transform="translate(800 2903)" fill="#72c6ef"/>
    </g>
    <g transform="translate(-478 -2788)">
      <circle id="Ellipse_1-90" data-name="Ellipse 1" cx="3.5" cy="3.5" r="3.5" transform="translate(800 2903)" fill="#72c6ef"/>
    </g>
    <g transform="translate(-800 -2765)">
      <circle id="Ellipse_1-91" data-name="Ellipse 1" cx="3.5" cy="3.5" r="3.5" transform="translate(800 2903)" fill="#72c6ef"/>
    </g>
    <g transform="translate(-777 -2765)">
      <circle id="Ellipse_1-92" data-name="Ellipse 1" cx="3.5" cy="3.5" r="3.5" transform="translate(800 2903)" fill="#72c6ef"/>
    </g>
    <g transform="translate(-754 -2765)">
      <circle id="Ellipse_1-93" data-name="Ellipse 1" cx="3.5" cy="3.5" r="3.5" transform="translate(800 2903)" fill="#72c6ef"/>
    </g>
    <g transform="translate(-731 -2765)">
      <circle id="Ellipse_1-94" data-name="Ellipse 1" cx="3.5" cy="3.5" r="3.5" transform="translate(800 2903)" fill="#72c6ef"/>
    </g>
    <g transform="translate(-708 -2765)">
      <circle id="Ellipse_1-95" data-name="Ellipse 1" cx="3.5" cy="3.5" r="3.5" transform="translate(800 2903)" fill="#72c6ef"/>
    </g>
    <g transform="translate(-685 -2765)">
      <circle id="Ellipse_1-96" data-name="Ellipse 1" cx="3.5" cy="3.5" r="3.5" transform="translate(800 2903)" fill="#72c6ef"/>
    </g>
    <g transform="translate(-662 -2765)">
      <circle id="Ellipse_1-97" data-name="Ellipse 1" cx="3.5" cy="3.5" r="3.5" transform="translate(800 2903)" fill="#72c6ef"/>
    </g>
    <g transform="translate(-639 -2765)">
      <circle id="Ellipse_1-98" data-name="Ellipse 1" cx="3.5" cy="3.5" r="3.5" transform="translate(800 2903)" fill="#72c6ef"/>
    </g>
    <g transform="translate(-616 -2765)">
      <circle id="Ellipse_1-99" data-name="Ellipse 1" cx="3.5" cy="3.5" r="3.5" transform="translate(800 2903)" fill="#72c6ef"/>
    </g>
    <g transform="translate(-593 -2765)">
      <circle id="Ellipse_1-100" data-name="Ellipse 1" cx="3.5" cy="3.5" r="3.5" transform="translate(800 2903)" fill="#72c6ef"/>
    </g>
    <g transform="translate(-570 -2765)">
      <circle id="Ellipse_1-101" data-name="Ellipse 1" cx="3.5" cy="3.5" r="3.5" transform="translate(800 2903)" fill="#72c6ef"/>
    </g>
    <g transform="translate(-547 -2765)">
      <circle id="Ellipse_1-102" data-name="Ellipse 1" cx="3.5" cy="3.5" r="3.5" transform="translate(800 2903)" fill="#72c6ef"/>
    </g>
    <g transform="translate(-524 -2765)">
      <circle id="Ellipse_1-103" data-name="Ellipse 1" cx="3.5" cy="3.5" r="3.5" transform="translate(800 2903)" fill="#72c6ef"/>
    </g>
    <g transform="translate(-501 -2765)">
      <circle id="Ellipse_1-104" data-name="Ellipse 1" cx="3.5" cy="3.5" r="3.5" transform="translate(800 2903)" fill="#72c6ef"/>
    </g>
    <g transform="translate(-478 -2765)">
      <circle id="Ellipse_1-105" data-name="Ellipse 1" cx="3.5" cy="3.5" r="3.5" transform="translate(800 2903)" fill="#72c6ef"/>
    </g>
    <g transform="translate(-800 -2742)">
      <circle id="Ellipse_1-106" data-name="Ellipse 1" cx="3.5" cy="3.5" r="3.5" transform="translate(800 2903)" fill="#72c6ef"/>
    </g>
    <g transform="translate(-777 -2742)">
      <circle id="Ellipse_1-107" data-name="Ellipse 1" cx="3.5" cy="3.5" r="3.5" transform="translate(800 2903)" fill="#72c6ef"/>
    </g>
    <g transform="translate(-754 -2742)">
      <circle id="Ellipse_1-108" data-name="Ellipse 1" cx="3.5" cy="3.5" r="3.5" transform="translate(800 2903)" fill="#72c6ef"/>
    </g>
    <g transform="translate(-731 -2742)">
      <circle id="Ellipse_1-109" data-name="Ellipse 1" cx="3.5" cy="3.5" r="3.5" transform="translate(800 2903)" fill="#72c6ef"/>
    </g>
    <g transform="translate(-708 -2742)">
      <circle id="Ellipse_1-110" data-name="Ellipse 1" cx="3.5" cy="3.5" r="3.5" transform="translate(800 2903)" fill="#72c6ef"/>
    </g>
    <g transform="translate(-685 -2742)">
      <circle id="Ellipse_1-111" data-name="Ellipse 1" cx="3.5" cy="3.5" r="3.5" transform="translate(800 2903)" fill="#72c6ef"/>
    </g>
    <g transform="translate(-662 -2742)">
      <circle id="Ellipse_1-112" data-name="Ellipse 1" cx="3.5" cy="3.5" r="3.5" transform="translate(800 2903)" fill="#72c6ef"/>
    </g>
    <g transform="translate(-639 -2742)">
      <circle id="Ellipse_1-113" data-name="Ellipse 1" cx="3.5" cy="3.5" r="3.5" transform="translate(800 2903)" fill="#72c6ef"/>
    </g>
    <g transform="translate(-616 -2742)">
      <circle id="Ellipse_1-114" data-name="Ellipse 1" cx="3.5" cy="3.5" r="3.5" transform="translate(800 2903)" fill="#72c6ef"/>
    </g>
    <g transform="translate(-593 -2742)">
      <circle id="Ellipse_1-115" data-name="Ellipse 1" cx="3.5" cy="3.5" r="3.5" transform="translate(800 2903)" fill="#72c6ef"/>
    </g>
    <g transform="translate(-570 -2742)">
      <circle id="Ellipse_1-116" data-name="Ellipse 1" cx="3.5" cy="3.5" r="3.5" transform="translate(800 2903)" fill="#72c6ef"/>
    </g>
    <g transform="translate(-547 -2742)">
      <circle id="Ellipse_1-117" data-name="Ellipse 1" cx="3.5" cy="3.5" r="3.5" transform="translate(800 2903)" fill="#72c6ef"/>
    </g>
    <g transform="translate(-524 -2742)">
      <circle id="Ellipse_1-118" data-name="Ellipse 1" cx="3.5" cy="3.5" r="3.5" transform="translate(800 2903)" fill="#72c6ef"/>
    </g>
    <g transform="translate(-501 -2742)">
      <circle id="Ellipse_1-119" data-name="Ellipse 1" cx="3.5" cy="3.5" r="3.5" transform="translate(800 2903)" fill="#72c6ef"/>
    </g>
    <g transform="translate(-478 -2742)">
      <circle id="Ellipse_1-120" data-name="Ellipse 1" cx="3.5" cy="3.5" r="3.5" transform="translate(800 2903)" fill="#72c6ef"/>
    </g>
  </g>
</svg>
