<svg xmlns="http://www.w3.org/2000/svg" xmlns:xlink="http://www.w3.org/1999/xlink" width="247" height="612" viewBox="0 0 247 612">
  <defs>
    <clipPath id="clip-path">
      <rect width="247" height="612" fill="none"/>
    </clipPath>
  </defs>
  <g id="Repeat_Grid_3" data-name="Repeat Grid 3" clip-path="url(#clip-path)" style="isolation: isolate">
    <g transform="translate(-800 -2903)">
      <circle id="Ellipse_1" data-name="Ellipse 1" cx="3.5" cy="3.5" r="3.5" transform="translate(800 2903)" fill="#72c6ef"/>
    </g>
    <g transform="translate(-777 -2903)">
      <circle id="Ellipse_1-2" data-name="Ellipse 1" cx="3.5" cy="3.5" r="3.5" transform="translate(800 2903)" fill="#72c6ef"/>
    </g>
    <g transform="translate(-754 -2903)">
      <circle id="Ellipse_1-3" data-name="Ellipse 1" cx="3.5" cy="3.5" r="3.5" transform="translate(800 2903)" fill="#72c6ef"/>
    </g>
    <g transform="translate(-731 -2903)">
      <circle id="Ellipse_1-4" data-name="Ellipse 1" cx="3.5" cy="3.5" r="3.5" transform="translate(800 2903)" fill="#72c6ef"/>
    </g>
    <g transform="translate(-708 -2903)">
      <circle id="Ellipse_1-5" data-name="Ellipse 1" cx="3.5" cy="3.5" r="3.5" transform="translate(800 2903)" fill="#72c6ef"/>
    </g>
    <g transform="translate(-685 -2903)">
      <circle id="Ellipse_1-6" data-name="Ellipse 1" cx="3.5" cy="3.5" r="3.5" transform="translate(800 2903)" fill="#72c6ef"/>
    </g>
    <g transform="translate(-662 -2903)">
      <circle id="Ellipse_1-7" data-name="Ellipse 1" cx="3.5" cy="3.5" r="3.5" transform="translate(800 2903)" fill="#72c6ef"/>
    </g>
    <g transform="translate(-639 -2903)">
      <circle id="Ellipse_1-8" data-name="Ellipse 1" cx="3.5" cy="3.5" r="3.5" transform="translate(800 2903)" fill="#72c6ef"/>
    </g>
    <g transform="translate(-616 -2903)">
      <circle id="Ellipse_1-9" data-name="Ellipse 1" cx="3.5" cy="3.5" r="3.5" transform="translate(800 2903)" fill="#72c6ef"/>
    </g>
    <g transform="translate(-593 -2903)">
      <circle id="Ellipse_1-10" data-name="Ellipse 1" cx="3.5" cy="3.5" r="3.5" transform="translate(800 2903)" fill="#72c6ef"/>
    </g>
    <g transform="translate(-570 -2903)">
      <circle id="Ellipse_1-11" data-name="Ellipse 1" cx="3.5" cy="3.5" r="3.5" transform="translate(800 2903)" fill="#72c6ef"/>
    </g>
    <g transform="translate(-800 -2876)">
      <circle id="Ellipse_1-12" data-name="Ellipse 1" cx="3.5" cy="3.5" r="3.5" transform="translate(800 2903)" fill="#72c6ef"/>
    </g>
    <g transform="translate(-777 -2876)">
      <circle id="Ellipse_1-13" data-name="Ellipse 1" cx="3.5" cy="3.5" r="3.5" transform="translate(800 2903)" fill="#72c6ef"/>
    </g>
    <g transform="translate(-754 -2876)">
      <circle id="Ellipse_1-14" data-name="Ellipse 1" cx="3.5" cy="3.5" r="3.5" transform="translate(800 2903)" fill="#72c6ef"/>
    </g>
    <g transform="translate(-731 -2876)">
      <circle id="Ellipse_1-15" data-name="Ellipse 1" cx="3.5" cy="3.5" r="3.5" transform="translate(800 2903)" fill="#72c6ef"/>
    </g>
    <g transform="translate(-708 -2876)">
      <circle id="Ellipse_1-16" data-name="Ellipse 1" cx="3.5" cy="3.5" r="3.5" transform="translate(800 2903)" fill="#72c6ef"/>
    </g>
    <g transform="translate(-685 -2876)">
      <circle id="Ellipse_1-17" data-name="Ellipse 1" cx="3.5" cy="3.5" r="3.5" transform="translate(800 2903)" fill="#72c6ef"/>
    </g>
    <g transform="translate(-662 -2876)">
      <circle id="Ellipse_1-18" data-name="Ellipse 1" cx="3.5" cy="3.5" r="3.5" transform="translate(800 2903)" fill="#72c6ef"/>
    </g>
    <g transform="translate(-639 -2876)">
      <circle id="Ellipse_1-19" data-name="Ellipse 1" cx="3.5" cy="3.5" r="3.5" transform="translate(800 2903)" fill="#72c6ef"/>
    </g>
    <g transform="translate(-616 -2876)">
      <circle id="Ellipse_1-20" data-name="Ellipse 1" cx="3.5" cy="3.5" r="3.5" transform="translate(800 2903)" fill="#72c6ef"/>
    </g>
    <g transform="translate(-593 -2876)">
      <circle id="Ellipse_1-21" data-name="Ellipse 1" cx="3.5" cy="3.5" r="3.5" transform="translate(800 2903)" fill="#72c6ef"/>
    </g>
    <g transform="translate(-570 -2876)">
      <circle id="Ellipse_1-22" data-name="Ellipse 1" cx="3.5" cy="3.5" r="3.5" transform="translate(800 2903)" fill="#72c6ef"/>
    </g>
    <g transform="translate(-800 -2849)">
      <circle id="Ellipse_1-23" data-name="Ellipse 1" cx="3.5" cy="3.5" r="3.5" transform="translate(800 2903)" fill="#72c6ef"/>
    </g>
    <g transform="translate(-777 -2849)">
      <circle id="Ellipse_1-24" data-name="Ellipse 1" cx="3.5" cy="3.5" r="3.5" transform="translate(800 2903)" fill="#72c6ef"/>
    </g>
    <g transform="translate(-754 -2849)">
      <circle id="Ellipse_1-25" data-name="Ellipse 1" cx="3.5" cy="3.5" r="3.5" transform="translate(800 2903)" fill="#72c6ef"/>
    </g>
    <g transform="translate(-731 -2849)">
      <circle id="Ellipse_1-26" data-name="Ellipse 1" cx="3.5" cy="3.5" r="3.5" transform="translate(800 2903)" fill="#72c6ef"/>
    </g>
    <g transform="translate(-708 -2849)">
      <circle id="Ellipse_1-27" data-name="Ellipse 1" cx="3.5" cy="3.5" r="3.5" transform="translate(800 2903)" fill="#72c6ef"/>
    </g>
    <g transform="translate(-685 -2849)">
      <circle id="Ellipse_1-28" data-name="Ellipse 1" cx="3.5" cy="3.5" r="3.5" transform="translate(800 2903)" fill="#72c6ef"/>
    </g>
    <g transform="translate(-662 -2849)">
      <circle id="Ellipse_1-29" data-name="Ellipse 1" cx="3.5" cy="3.5" r="3.5" transform="translate(800 2903)" fill="#72c6ef"/>
    </g>
    <g transform="translate(-639 -2849)">
      <circle id="Ellipse_1-30" data-name="Ellipse 1" cx="3.5" cy="3.5" r="3.5" transform="translate(800 2903)" fill="#72c6ef"/>
    </g>
    <g transform="translate(-616 -2849)">
      <circle id="Ellipse_1-31" data-name="Ellipse 1" cx="3.5" cy="3.5" r="3.5" transform="translate(800 2903)" fill="#72c6ef"/>
    </g>
    <g transform="translate(-593 -2849)">
      <circle id="Ellipse_1-32" data-name="Ellipse 1" cx="3.5" cy="3.5" r="3.5" transform="translate(800 2903)" fill="#72c6ef"/>
    </g>
    <g transform="translate(-570 -2849)">
      <circle id="Ellipse_1-33" data-name="Ellipse 1" cx="3.5" cy="3.5" r="3.5" transform="translate(800 2903)" fill="#72c6ef"/>
    </g>
    <g transform="translate(-800 -2822)">
      <circle id="Ellipse_1-34" data-name="Ellipse 1" cx="3.5" cy="3.5" r="3.5" transform="translate(800 2903)" fill="#72c6ef"/>
    </g>
    <g transform="translate(-777 -2822)">
      <circle id="Ellipse_1-35" data-name="Ellipse 1" cx="3.5" cy="3.5" r="3.5" transform="translate(800 2903)" fill="#72c6ef"/>
    </g>
    <g transform="translate(-754 -2822)">
      <circle id="Ellipse_1-36" data-name="Ellipse 1" cx="3.5" cy="3.5" r="3.5" transform="translate(800 2903)" fill="#72c6ef"/>
    </g>
    <g transform="translate(-731 -2822)">
      <circle id="Ellipse_1-37" data-name="Ellipse 1" cx="3.5" cy="3.5" r="3.5" transform="translate(800 2903)" fill="#72c6ef"/>
    </g>
    <g transform="translate(-708 -2822)">
      <circle id="Ellipse_1-38" data-name="Ellipse 1" cx="3.5" cy="3.5" r="3.5" transform="translate(800 2903)" fill="#72c6ef"/>
    </g>
    <g transform="translate(-685 -2822)">
      <circle id="Ellipse_1-39" data-name="Ellipse 1" cx="3.5" cy="3.5" r="3.5" transform="translate(800 2903)" fill="#72c6ef"/>
    </g>
    <g transform="translate(-662 -2822)">
      <circle id="Ellipse_1-40" data-name="Ellipse 1" cx="3.5" cy="3.5" r="3.5" transform="translate(800 2903)" fill="#72c6ef"/>
    </g>
    <g transform="translate(-639 -2822)">
      <circle id="Ellipse_1-41" data-name="Ellipse 1" cx="3.5" cy="3.5" r="3.5" transform="translate(800 2903)" fill="#72c6ef"/>
    </g>
    <g transform="translate(-616 -2822)">
      <circle id="Ellipse_1-42" data-name="Ellipse 1" cx="3.5" cy="3.5" r="3.5" transform="translate(800 2903)" fill="#72c6ef"/>
    </g>
    <g transform="translate(-593 -2822)">
      <circle id="Ellipse_1-43" data-name="Ellipse 1" cx="3.5" cy="3.5" r="3.5" transform="translate(800 2903)" fill="#72c6ef"/>
    </g>
    <g transform="translate(-570 -2822)">
      <circle id="Ellipse_1-44" data-name="Ellipse 1" cx="3.5" cy="3.5" r="3.5" transform="translate(800 2903)" fill="#72c6ef"/>
    </g>
    <g transform="translate(-800 -2795)">
      <circle id="Ellipse_1-45" data-name="Ellipse 1" cx="3.5" cy="3.5" r="3.5" transform="translate(800 2903)" fill="#72c6ef"/>
    </g>
    <g transform="translate(-777 -2795)">
      <circle id="Ellipse_1-46" data-name="Ellipse 1" cx="3.5" cy="3.5" r="3.5" transform="translate(800 2903)" fill="#72c6ef"/>
    </g>
    <g transform="translate(-754 -2795)">
      <circle id="Ellipse_1-47" data-name="Ellipse 1" cx="3.5" cy="3.5" r="3.5" transform="translate(800 2903)" fill="#72c6ef"/>
    </g>
    <g transform="translate(-731 -2795)">
      <circle id="Ellipse_1-48" data-name="Ellipse 1" cx="3.5" cy="3.5" r="3.5" transform="translate(800 2903)" fill="#72c6ef"/>
    </g>
    <g transform="translate(-708 -2795)">
      <circle id="Ellipse_1-49" data-name="Ellipse 1" cx="3.5" cy="3.5" r="3.5" transform="translate(800 2903)" fill="#72c6ef"/>
    </g>
    <g transform="translate(-685 -2795)">
      <circle id="Ellipse_1-50" data-name="Ellipse 1" cx="3.5" cy="3.5" r="3.5" transform="translate(800 2903)" fill="#72c6ef"/>
    </g>
    <g transform="translate(-662 -2795)">
      <circle id="Ellipse_1-51" data-name="Ellipse 1" cx="3.5" cy="3.5" r="3.5" transform="translate(800 2903)" fill="#72c6ef"/>
    </g>
    <g transform="translate(-639 -2795)">
      <circle id="Ellipse_1-52" data-name="Ellipse 1" cx="3.5" cy="3.5" r="3.5" transform="translate(800 2903)" fill="#72c6ef"/>
    </g>
    <g transform="translate(-616 -2795)">
      <circle id="Ellipse_1-53" data-name="Ellipse 1" cx="3.5" cy="3.5" r="3.5" transform="translate(800 2903)" fill="#72c6ef"/>
    </g>
    <g transform="translate(-593 -2795)">
      <circle id="Ellipse_1-54" data-name="Ellipse 1" cx="3.5" cy="3.5" r="3.5" transform="translate(800 2903)" fill="#72c6ef"/>
    </g>
    <g transform="translate(-570 -2795)">
      <circle id="Ellipse_1-55" data-name="Ellipse 1" cx="3.5" cy="3.5" r="3.5" transform="translate(800 2903)" fill="#72c6ef"/>
    </g>
    <g transform="translate(-800 -2768)">
      <circle id="Ellipse_1-56" data-name="Ellipse 1" cx="3.5" cy="3.5" r="3.5" transform="translate(800 2903)" fill="#72c6ef"/>
    </g>
    <g transform="translate(-777 -2768)">
      <circle id="Ellipse_1-57" data-name="Ellipse 1" cx="3.5" cy="3.5" r="3.5" transform="translate(800 2903)" fill="#72c6ef"/>
    </g>
    <g transform="translate(-754 -2768)">
      <circle id="Ellipse_1-58" data-name="Ellipse 1" cx="3.5" cy="3.5" r="3.5" transform="translate(800 2903)" fill="#72c6ef"/>
    </g>
    <g transform="translate(-731 -2768)">
      <circle id="Ellipse_1-59" data-name="Ellipse 1" cx="3.5" cy="3.5" r="3.5" transform="translate(800 2903)" fill="#72c6ef"/>
    </g>
    <g transform="translate(-708 -2768)">
      <circle id="Ellipse_1-60" data-name="Ellipse 1" cx="3.5" cy="3.5" r="3.5" transform="translate(800 2903)" fill="#72c6ef"/>
    </g>
    <g transform="translate(-685 -2768)">
      <circle id="Ellipse_1-61" data-name="Ellipse 1" cx="3.5" cy="3.5" r="3.5" transform="translate(800 2903)" fill="#72c6ef"/>
    </g>
    <g transform="translate(-662 -2768)">
      <circle id="Ellipse_1-62" data-name="Ellipse 1" cx="3.5" cy="3.5" r="3.5" transform="translate(800 2903)" fill="#72c6ef"/>
    </g>
    <g transform="translate(-639 -2768)">
      <circle id="Ellipse_1-63" data-name="Ellipse 1" cx="3.5" cy="3.5" r="3.5" transform="translate(800 2903)" fill="#72c6ef"/>
    </g>
    <g transform="translate(-616 -2768)">
      <circle id="Ellipse_1-64" data-name="Ellipse 1" cx="3.5" cy="3.5" r="3.5" transform="translate(800 2903)" fill="#72c6ef"/>
    </g>
    <g transform="translate(-593 -2768)">
      <circle id="Ellipse_1-65" data-name="Ellipse 1" cx="3.5" cy="3.5" r="3.5" transform="translate(800 2903)" fill="#72c6ef"/>
    </g>
    <g transform="translate(-570 -2768)">
      <circle id="Ellipse_1-66" data-name="Ellipse 1" cx="3.5" cy="3.5" r="3.5" transform="translate(800 2903)" fill="#72c6ef"/>
    </g>
    <g transform="translate(-800 -2741)">
      <circle id="Ellipse_1-67" data-name="Ellipse 1" cx="3.5" cy="3.5" r="3.5" transform="translate(800 2903)" fill="#72c6ef"/>
    </g>
    <g transform="translate(-777 -2741)">
      <circle id="Ellipse_1-68" data-name="Ellipse 1" cx="3.5" cy="3.5" r="3.5" transform="translate(800 2903)" fill="#72c6ef"/>
    </g>
    <g transform="translate(-754 -2741)">
      <circle id="Ellipse_1-69" data-name="Ellipse 1" cx="3.5" cy="3.5" r="3.5" transform="translate(800 2903)" fill="#72c6ef"/>
    </g>
    <g transform="translate(-731 -2741)">
      <circle id="Ellipse_1-70" data-name="Ellipse 1" cx="3.5" cy="3.5" r="3.5" transform="translate(800 2903)" fill="#72c6ef"/>
    </g>
    <g transform="translate(-708 -2741)">
      <circle id="Ellipse_1-71" data-name="Ellipse 1" cx="3.5" cy="3.5" r="3.5" transform="translate(800 2903)" fill="#72c6ef"/>
    </g>
    <g transform="translate(-685 -2741)">
      <circle id="Ellipse_1-72" data-name="Ellipse 1" cx="3.5" cy="3.5" r="3.5" transform="translate(800 2903)" fill="#72c6ef"/>
    </g>
    <g transform="translate(-662 -2741)">
      <circle id="Ellipse_1-73" data-name="Ellipse 1" cx="3.5" cy="3.5" r="3.5" transform="translate(800 2903)" fill="#72c6ef"/>
    </g>
    <g transform="translate(-639 -2741)">
      <circle id="Ellipse_1-74" data-name="Ellipse 1" cx="3.5" cy="3.5" r="3.5" transform="translate(800 2903)" fill="#72c6ef"/>
    </g>
    <g transform="translate(-616 -2741)">
      <circle id="Ellipse_1-75" data-name="Ellipse 1" cx="3.5" cy="3.5" r="3.5" transform="translate(800 2903)" fill="#72c6ef"/>
    </g>
    <g transform="translate(-593 -2741)">
      <circle id="Ellipse_1-76" data-name="Ellipse 1" cx="3.5" cy="3.5" r="3.5" transform="translate(800 2903)" fill="#72c6ef"/>
    </g>
    <g transform="translate(-570 -2741)">
      <circle id="Ellipse_1-77" data-name="Ellipse 1" cx="3.5" cy="3.5" r="3.5" transform="translate(800 2903)" fill="#72c6ef"/>
    </g>
    <g transform="translate(-800 -2714)">
      <circle id="Ellipse_1-78" data-name="Ellipse 1" cx="3.5" cy="3.5" r="3.5" transform="translate(800 2903)" fill="#72c6ef"/>
    </g>
    <g transform="translate(-777 -2714)">
      <circle id="Ellipse_1-79" data-name="Ellipse 1" cx="3.5" cy="3.5" r="3.5" transform="translate(800 2903)" fill="#72c6ef"/>
    </g>
    <g transform="translate(-754 -2714)">
      <circle id="Ellipse_1-80" data-name="Ellipse 1" cx="3.5" cy="3.5" r="3.5" transform="translate(800 2903)" fill="#72c6ef"/>
    </g>
    <g transform="translate(-731 -2714)">
      <circle id="Ellipse_1-81" data-name="Ellipse 1" cx="3.5" cy="3.5" r="3.5" transform="translate(800 2903)" fill="#72c6ef"/>
    </g>
    <g transform="translate(-708 -2714)">
      <circle id="Ellipse_1-82" data-name="Ellipse 1" cx="3.5" cy="3.5" r="3.5" transform="translate(800 2903)" fill="#72c6ef"/>
    </g>
    <g transform="translate(-685 -2714)">
      <circle id="Ellipse_1-83" data-name="Ellipse 1" cx="3.5" cy="3.5" r="3.5" transform="translate(800 2903)" fill="#72c6ef"/>
    </g>
    <g transform="translate(-662 -2714)">
      <circle id="Ellipse_1-84" data-name="Ellipse 1" cx="3.5" cy="3.5" r="3.5" transform="translate(800 2903)" fill="#72c6ef"/>
    </g>
    <g transform="translate(-639 -2714)">
      <circle id="Ellipse_1-85" data-name="Ellipse 1" cx="3.5" cy="3.5" r="3.5" transform="translate(800 2903)" fill="#72c6ef"/>
    </g>
    <g transform="translate(-616 -2714)">
      <circle id="Ellipse_1-86" data-name="Ellipse 1" cx="3.5" cy="3.5" r="3.5" transform="translate(800 2903)" fill="#72c6ef"/>
    </g>
    <g transform="translate(-593 -2714)">
      <circle id="Ellipse_1-87" data-name="Ellipse 1" cx="3.5" cy="3.5" r="3.5" transform="translate(800 2903)" fill="#72c6ef"/>
    </g>
    <g transform="translate(-570 -2714)">
      <circle id="Ellipse_1-88" data-name="Ellipse 1" cx="3.5" cy="3.5" r="3.5" transform="translate(800 2903)" fill="#72c6ef"/>
    </g>
    <g transform="translate(-800 -2687)">
      <circle id="Ellipse_1-89" data-name="Ellipse 1" cx="3.5" cy="3.5" r="3.5" transform="translate(800 2903)" fill="#72c6ef"/>
    </g>
    <g transform="translate(-777 -2687)">
      <circle id="Ellipse_1-90" data-name="Ellipse 1" cx="3.5" cy="3.5" r="3.5" transform="translate(800 2903)" fill="#72c6ef"/>
    </g>
    <g transform="translate(-754 -2687)">
      <circle id="Ellipse_1-91" data-name="Ellipse 1" cx="3.5" cy="3.5" r="3.5" transform="translate(800 2903)" fill="#72c6ef"/>
    </g>
    <g transform="translate(-731 -2687)">
      <circle id="Ellipse_1-92" data-name="Ellipse 1" cx="3.5" cy="3.5" r="3.5" transform="translate(800 2903)" fill="#72c6ef"/>
    </g>
    <g transform="translate(-708 -2687)">
      <circle id="Ellipse_1-93" data-name="Ellipse 1" cx="3.5" cy="3.5" r="3.5" transform="translate(800 2903)" fill="#72c6ef"/>
    </g>
    <g transform="translate(-685 -2687)">
      <circle id="Ellipse_1-94" data-name="Ellipse 1" cx="3.5" cy="3.5" r="3.5" transform="translate(800 2903)" fill="#72c6ef"/>
    </g>
    <g transform="translate(-662 -2687)">
      <circle id="Ellipse_1-95" data-name="Ellipse 1" cx="3.5" cy="3.5" r="3.5" transform="translate(800 2903)" fill="#72c6ef"/>
    </g>
    <g transform="translate(-639 -2687)">
      <circle id="Ellipse_1-96" data-name="Ellipse 1" cx="3.5" cy="3.5" r="3.5" transform="translate(800 2903)" fill="#72c6ef"/>
    </g>
    <g transform="translate(-616 -2687)">
      <circle id="Ellipse_1-97" data-name="Ellipse 1" cx="3.5" cy="3.5" r="3.5" transform="translate(800 2903)" fill="#72c6ef"/>
    </g>
    <g transform="translate(-593 -2687)">
      <circle id="Ellipse_1-98" data-name="Ellipse 1" cx="3.5" cy="3.5" r="3.5" transform="translate(800 2903)" fill="#72c6ef"/>
    </g>
    <g transform="translate(-570 -2687)">
      <circle id="Ellipse_1-99" data-name="Ellipse 1" cx="3.5" cy="3.5" r="3.5" transform="translate(800 2903)" fill="#72c6ef"/>
    </g>
    <g transform="translate(-800 -2660)">
      <circle id="Ellipse_1-100" data-name="Ellipse 1" cx="3.5" cy="3.5" r="3.5" transform="translate(800 2903)" fill="#72c6ef"/>
    </g>
    <g transform="translate(-777 -2660)">
      <circle id="Ellipse_1-101" data-name="Ellipse 1" cx="3.5" cy="3.5" r="3.5" transform="translate(800 2903)" fill="#72c6ef"/>
    </g>
    <g transform="translate(-754 -2660)">
      <circle id="Ellipse_1-102" data-name="Ellipse 1" cx="3.5" cy="3.5" r="3.5" transform="translate(800 2903)" fill="#72c6ef"/>
    </g>
    <g transform="translate(-731 -2660)">
      <circle id="Ellipse_1-103" data-name="Ellipse 1" cx="3.5" cy="3.5" r="3.5" transform="translate(800 2903)" fill="#72c6ef"/>
    </g>
    <g transform="translate(-708 -2660)">
      <circle id="Ellipse_1-104" data-name="Ellipse 1" cx="3.5" cy="3.5" r="3.5" transform="translate(800 2903)" fill="#72c6ef"/>
    </g>
    <g transform="translate(-685 -2660)">
      <circle id="Ellipse_1-105" data-name="Ellipse 1" cx="3.5" cy="3.5" r="3.5" transform="translate(800 2903)" fill="#72c6ef"/>
    </g>
    <g transform="translate(-662 -2660)">
      <circle id="Ellipse_1-106" data-name="Ellipse 1" cx="3.5" cy="3.5" r="3.5" transform="translate(800 2903)" fill="#72c6ef"/>
    </g>
    <g transform="translate(-639 -2660)">
      <circle id="Ellipse_1-107" data-name="Ellipse 1" cx="3.5" cy="3.5" r="3.5" transform="translate(800 2903)" fill="#72c6ef"/>
    </g>
    <g transform="translate(-616 -2660)">
      <circle id="Ellipse_1-108" data-name="Ellipse 1" cx="3.5" cy="3.5" r="3.5" transform="translate(800 2903)" fill="#72c6ef"/>
    </g>
    <g transform="translate(-593 -2660)">
      <circle id="Ellipse_1-109" data-name="Ellipse 1" cx="3.5" cy="3.5" r="3.5" transform="translate(800 2903)" fill="#72c6ef"/>
    </g>
    <g transform="translate(-570 -2660)">
      <circle id="Ellipse_1-110" data-name="Ellipse 1" cx="3.5" cy="3.5" r="3.5" transform="translate(800 2903)" fill="#72c6ef"/>
    </g>
    <g transform="translate(-800 -2633)">
      <circle id="Ellipse_1-111" data-name="Ellipse 1" cx="3.5" cy="3.5" r="3.5" transform="translate(800 2903)" fill="#72c6ef"/>
    </g>
    <g transform="translate(-777 -2633)">
      <circle id="Ellipse_1-112" data-name="Ellipse 1" cx="3.5" cy="3.5" r="3.5" transform="translate(800 2903)" fill="#72c6ef"/>
    </g>
    <g transform="translate(-754 -2633)">
      <circle id="Ellipse_1-113" data-name="Ellipse 1" cx="3.5" cy="3.5" r="3.5" transform="translate(800 2903)" fill="#72c6ef"/>
    </g>
    <g transform="translate(-731 -2633)">
      <circle id="Ellipse_1-114" data-name="Ellipse 1" cx="3.5" cy="3.5" r="3.5" transform="translate(800 2903)" fill="#72c6ef"/>
    </g>
    <g transform="translate(-708 -2633)">
      <circle id="Ellipse_1-115" data-name="Ellipse 1" cx="3.5" cy="3.5" r="3.5" transform="translate(800 2903)" fill="#72c6ef"/>
    </g>
    <g transform="translate(-685 -2633)">
      <circle id="Ellipse_1-116" data-name="Ellipse 1" cx="3.5" cy="3.5" r="3.5" transform="translate(800 2903)" fill="#72c6ef"/>
    </g>
    <g transform="translate(-662 -2633)">
      <circle id="Ellipse_1-117" data-name="Ellipse 1" cx="3.5" cy="3.5" r="3.5" transform="translate(800 2903)" fill="#72c6ef"/>
    </g>
    <g transform="translate(-639 -2633)">
      <circle id="Ellipse_1-118" data-name="Ellipse 1" cx="3.5" cy="3.5" r="3.5" transform="translate(800 2903)" fill="#72c6ef"/>
    </g>
    <g transform="translate(-616 -2633)">
      <circle id="Ellipse_1-119" data-name="Ellipse 1" cx="3.5" cy="3.5" r="3.5" transform="translate(800 2903)" fill="#72c6ef"/>
    </g>
    <g transform="translate(-593 -2633)">
      <circle id="Ellipse_1-120" data-name="Ellipse 1" cx="3.5" cy="3.5" r="3.5" transform="translate(800 2903)" fill="#72c6ef"/>
    </g>
    <g transform="translate(-570 -2633)">
      <circle id="Ellipse_1-121" data-name="Ellipse 1" cx="3.5" cy="3.5" r="3.5" transform="translate(800 2903)" fill="#72c6ef"/>
    </g>
    <g transform="translate(-800 -2606)">
      <circle id="Ellipse_1-122" data-name="Ellipse 1" cx="3.5" cy="3.5" r="3.5" transform="translate(800 2903)" fill="#72c6ef"/>
    </g>
    <g transform="translate(-777 -2606)">
      <circle id="Ellipse_1-123" data-name="Ellipse 1" cx="3.5" cy="3.5" r="3.5" transform="translate(800 2903)" fill="#72c6ef"/>
    </g>
    <g transform="translate(-754 -2606)">
      <circle id="Ellipse_1-124" data-name="Ellipse 1" cx="3.5" cy="3.5" r="3.5" transform="translate(800 2903)" fill="#72c6ef"/>
    </g>
    <g transform="translate(-731 -2606)">
      <circle id="Ellipse_1-125" data-name="Ellipse 1" cx="3.5" cy="3.5" r="3.5" transform="translate(800 2903)" fill="#72c6ef"/>
    </g>
    <g transform="translate(-708 -2606)">
      <circle id="Ellipse_1-126" data-name="Ellipse 1" cx="3.5" cy="3.5" r="3.5" transform="translate(800 2903)" fill="#72c6ef"/>
    </g>
    <g transform="translate(-685 -2606)">
      <circle id="Ellipse_1-127" data-name="Ellipse 1" cx="3.5" cy="3.5" r="3.5" transform="translate(800 2903)" fill="#72c6ef"/>
    </g>
    <g transform="translate(-662 -2606)">
      <circle id="Ellipse_1-128" data-name="Ellipse 1" cx="3.5" cy="3.5" r="3.5" transform="translate(800 2903)" fill="#72c6ef"/>
    </g>
    <g transform="translate(-639 -2606)">
      <circle id="Ellipse_1-129" data-name="Ellipse 1" cx="3.5" cy="3.5" r="3.5" transform="translate(800 2903)" fill="#72c6ef"/>
    </g>
    <g transform="translate(-616 -2606)">
      <circle id="Ellipse_1-130" data-name="Ellipse 1" cx="3.5" cy="3.5" r="3.5" transform="translate(800 2903)" fill="#72c6ef"/>
    </g>
    <g transform="translate(-593 -2606)">
      <circle id="Ellipse_1-131" data-name="Ellipse 1" cx="3.5" cy="3.5" r="3.5" transform="translate(800 2903)" fill="#72c6ef"/>
    </g>
    <g transform="translate(-570 -2606)">
      <circle id="Ellipse_1-132" data-name="Ellipse 1" cx="3.5" cy="3.5" r="3.5" transform="translate(800 2903)" fill="#72c6ef"/>
    </g>
    <g transform="translate(-800 -2579)">
      <circle id="Ellipse_1-133" data-name="Ellipse 1" cx="3.5" cy="3.5" r="3.5" transform="translate(800 2903)" fill="#72c6ef"/>
    </g>
    <g transform="translate(-777 -2579)">
      <circle id="Ellipse_1-134" data-name="Ellipse 1" cx="3.5" cy="3.5" r="3.5" transform="translate(800 2903)" fill="#72c6ef"/>
    </g>
    <g transform="translate(-754 -2579)">
      <circle id="Ellipse_1-135" data-name="Ellipse 1" cx="3.5" cy="3.5" r="3.5" transform="translate(800 2903)" fill="#72c6ef"/>
    </g>
    <g transform="translate(-731 -2579)">
      <circle id="Ellipse_1-136" data-name="Ellipse 1" cx="3.5" cy="3.5" r="3.5" transform="translate(800 2903)" fill="#72c6ef"/>
    </g>
    <g transform="translate(-708 -2579)">
      <circle id="Ellipse_1-137" data-name="Ellipse 1" cx="3.5" cy="3.5" r="3.5" transform="translate(800 2903)" fill="#72c6ef"/>
    </g>
    <g transform="translate(-685 -2579)">
      <circle id="Ellipse_1-138" data-name="Ellipse 1" cx="3.5" cy="3.5" r="3.5" transform="translate(800 2903)" fill="#72c6ef"/>
    </g>
    <g transform="translate(-662 -2579)">
      <circle id="Ellipse_1-139" data-name="Ellipse 1" cx="3.5" cy="3.5" r="3.5" transform="translate(800 2903)" fill="#72c6ef"/>
    </g>
    <g transform="translate(-639 -2579)">
      <circle id="Ellipse_1-140" data-name="Ellipse 1" cx="3.5" cy="3.5" r="3.5" transform="translate(800 2903)" fill="#72c6ef"/>
    </g>
    <g transform="translate(-616 -2579)">
      <circle id="Ellipse_1-141" data-name="Ellipse 1" cx="3.5" cy="3.5" r="3.5" transform="translate(800 2903)" fill="#72c6ef"/>
    </g>
    <g transform="translate(-593 -2579)">
      <circle id="Ellipse_1-142" data-name="Ellipse 1" cx="3.5" cy="3.5" r="3.5" transform="translate(800 2903)" fill="#72c6ef"/>
    </g>
    <g transform="translate(-570 -2579)">
      <circle id="Ellipse_1-143" data-name="Ellipse 1" cx="3.5" cy="3.5" r="3.5" transform="translate(800 2903)" fill="#72c6ef"/>
    </g>
    <g transform="translate(-800 -2552)">
      <circle id="Ellipse_1-144" data-name="Ellipse 1" cx="3.5" cy="3.5" r="3.5" transform="translate(800 2903)" fill="#72c6ef"/>
    </g>
    <g transform="translate(-777 -2552)">
      <circle id="Ellipse_1-145" data-name="Ellipse 1" cx="3.5" cy="3.5" r="3.5" transform="translate(800 2903)" fill="#72c6ef"/>
    </g>
    <g transform="translate(-754 -2552)">
      <circle id="Ellipse_1-146" data-name="Ellipse 1" cx="3.5" cy="3.5" r="3.5" transform="translate(800 2903)" fill="#72c6ef"/>
    </g>
    <g transform="translate(-731 -2552)">
      <circle id="Ellipse_1-147" data-name="Ellipse 1" cx="3.5" cy="3.5" r="3.5" transform="translate(800 2903)" fill="#72c6ef"/>
    </g>
    <g transform="translate(-708 -2552)">
      <circle id="Ellipse_1-148" data-name="Ellipse 1" cx="3.5" cy="3.5" r="3.5" transform="translate(800 2903)" fill="#72c6ef"/>
    </g>
    <g transform="translate(-685 -2552)">
      <circle id="Ellipse_1-149" data-name="Ellipse 1" cx="3.5" cy="3.5" r="3.5" transform="translate(800 2903)" fill="#72c6ef"/>
    </g>
    <g transform="translate(-662 -2552)">
      <circle id="Ellipse_1-150" data-name="Ellipse 1" cx="3.5" cy="3.5" r="3.5" transform="translate(800 2903)" fill="#72c6ef"/>
    </g>
    <g transform="translate(-639 -2552)">
      <circle id="Ellipse_1-151" data-name="Ellipse 1" cx="3.5" cy="3.5" r="3.5" transform="translate(800 2903)" fill="#72c6ef"/>
    </g>
    <g transform="translate(-616 -2552)">
      <circle id="Ellipse_1-152" data-name="Ellipse 1" cx="3.5" cy="3.5" r="3.5" transform="translate(800 2903)" fill="#72c6ef"/>
    </g>
    <g transform="translate(-593 -2552)">
      <circle id="Ellipse_1-153" data-name="Ellipse 1" cx="3.5" cy="3.5" r="3.5" transform="translate(800 2903)" fill="#72c6ef"/>
    </g>
    <g transform="translate(-570 -2552)">
      <circle id="Ellipse_1-154" data-name="Ellipse 1" cx="3.5" cy="3.5" r="3.5" transform="translate(800 2903)" fill="#72c6ef"/>
    </g>
    <g transform="translate(-800 -2525)">
      <circle id="Ellipse_1-155" data-name="Ellipse 1" cx="3.5" cy="3.5" r="3.5" transform="translate(800 2903)" fill="#72c6ef"/>
    </g>
    <g transform="translate(-777 -2525)">
      <circle id="Ellipse_1-156" data-name="Ellipse 1" cx="3.5" cy="3.5" r="3.5" transform="translate(800 2903)" fill="#72c6ef"/>
    </g>
    <g transform="translate(-754 -2525)">
      <circle id="Ellipse_1-157" data-name="Ellipse 1" cx="3.5" cy="3.5" r="3.5" transform="translate(800 2903)" fill="#72c6ef"/>
    </g>
    <g transform="translate(-731 -2525)">
      <circle id="Ellipse_1-158" data-name="Ellipse 1" cx="3.5" cy="3.5" r="3.5" transform="translate(800 2903)" fill="#72c6ef"/>
    </g>
    <g transform="translate(-708 -2525)">
      <circle id="Ellipse_1-159" data-name="Ellipse 1" cx="3.5" cy="3.5" r="3.5" transform="translate(800 2903)" fill="#72c6ef"/>
    </g>
    <g transform="translate(-685 -2525)">
      <circle id="Ellipse_1-160" data-name="Ellipse 1" cx="3.5" cy="3.5" r="3.5" transform="translate(800 2903)" fill="#72c6ef"/>
    </g>
    <g transform="translate(-662 -2525)">
      <circle id="Ellipse_1-161" data-name="Ellipse 1" cx="3.5" cy="3.5" r="3.5" transform="translate(800 2903)" fill="#72c6ef"/>
    </g>
    <g transform="translate(-639 -2525)">
      <circle id="Ellipse_1-162" data-name="Ellipse 1" cx="3.5" cy="3.5" r="3.5" transform="translate(800 2903)" fill="#72c6ef"/>
    </g>
    <g transform="translate(-616 -2525)">
      <circle id="Ellipse_1-163" data-name="Ellipse 1" cx="3.5" cy="3.5" r="3.5" transform="translate(800 2903)" fill="#72c6ef"/>
    </g>
    <g transform="translate(-593 -2525)">
      <circle id="Ellipse_1-164" data-name="Ellipse 1" cx="3.5" cy="3.5" r="3.5" transform="translate(800 2903)" fill="#72c6ef"/>
    </g>
    <g transform="translate(-570 -2525)">
      <circle id="Ellipse_1-165" data-name="Ellipse 1" cx="3.5" cy="3.5" r="3.5" transform="translate(800 2903)" fill="#72c6ef"/>
    </g>
    <g transform="translate(-800 -2498)">
      <circle id="Ellipse_1-166" data-name="Ellipse 1" cx="3.5" cy="3.5" r="3.5" transform="translate(800 2903)" fill="#72c6ef"/>
    </g>
    <g transform="translate(-777 -2498)">
      <circle id="Ellipse_1-167" data-name="Ellipse 1" cx="3.5" cy="3.5" r="3.5" transform="translate(800 2903)" fill="#72c6ef"/>
    </g>
    <g transform="translate(-754 -2498)">
      <circle id="Ellipse_1-168" data-name="Ellipse 1" cx="3.5" cy="3.5" r="3.5" transform="translate(800 2903)" fill="#72c6ef"/>
    </g>
    <g transform="translate(-731 -2498)">
      <circle id="Ellipse_1-169" data-name="Ellipse 1" cx="3.5" cy="3.5" r="3.5" transform="translate(800 2903)" fill="#72c6ef"/>
    </g>
    <g transform="translate(-708 -2498)">
      <circle id="Ellipse_1-170" data-name="Ellipse 1" cx="3.5" cy="3.5" r="3.5" transform="translate(800 2903)" fill="#72c6ef"/>
    </g>
    <g transform="translate(-685 -2498)">
      <circle id="Ellipse_1-171" data-name="Ellipse 1" cx="3.5" cy="3.5" r="3.5" transform="translate(800 2903)" fill="#72c6ef"/>
    </g>
    <g transform="translate(-662 -2498)">
      <circle id="Ellipse_1-172" data-name="Ellipse 1" cx="3.5" cy="3.5" r="3.5" transform="translate(800 2903)" fill="#72c6ef"/>
    </g>
    <g transform="translate(-639 -2498)">
      <circle id="Ellipse_1-173" data-name="Ellipse 1" cx="3.5" cy="3.5" r="3.5" transform="translate(800 2903)" fill="#72c6ef"/>
    </g>
    <g transform="translate(-616 -2498)">
      <circle id="Ellipse_1-174" data-name="Ellipse 1" cx="3.5" cy="3.5" r="3.5" transform="translate(800 2903)" fill="#72c6ef"/>
    </g>
    <g transform="translate(-593 -2498)">
      <circle id="Ellipse_1-175" data-name="Ellipse 1" cx="3.5" cy="3.5" r="3.5" transform="translate(800 2903)" fill="#72c6ef"/>
    </g>
    <g transform="translate(-570 -2498)">
      <circle id="Ellipse_1-176" data-name="Ellipse 1" cx="3.5" cy="3.5" r="3.5" transform="translate(800 2903)" fill="#72c6ef"/>
    </g>
    <g transform="translate(-800 -2471)">
      <circle id="Ellipse_1-177" data-name="Ellipse 1" cx="3.5" cy="3.5" r="3.5" transform="translate(800 2903)" fill="#72c6ef"/>
    </g>
    <g transform="translate(-777 -2471)">
      <circle id="Ellipse_1-178" data-name="Ellipse 1" cx="3.5" cy="3.5" r="3.5" transform="translate(800 2903)" fill="#72c6ef"/>
    </g>
    <g transform="translate(-754 -2471)">
      <circle id="Ellipse_1-179" data-name="Ellipse 1" cx="3.5" cy="3.5" r="3.5" transform="translate(800 2903)" fill="#72c6ef"/>
    </g>
    <g transform="translate(-731 -2471)">
      <circle id="Ellipse_1-180" data-name="Ellipse 1" cx="3.5" cy="3.5" r="3.5" transform="translate(800 2903)" fill="#72c6ef"/>
    </g>
    <g transform="translate(-708 -2471)">
      <circle id="Ellipse_1-181" data-name="Ellipse 1" cx="3.5" cy="3.5" r="3.5" transform="translate(800 2903)" fill="#72c6ef"/>
    </g>
    <g transform="translate(-685 -2471)">
      <circle id="Ellipse_1-182" data-name="Ellipse 1" cx="3.5" cy="3.5" r="3.5" transform="translate(800 2903)" fill="#72c6ef"/>
    </g>
    <g transform="translate(-662 -2471)">
      <circle id="Ellipse_1-183" data-name="Ellipse 1" cx="3.5" cy="3.5" r="3.5" transform="translate(800 2903)" fill="#72c6ef"/>
    </g>
    <g transform="translate(-639 -2471)">
      <circle id="Ellipse_1-184" data-name="Ellipse 1" cx="3.5" cy="3.5" r="3.5" transform="translate(800 2903)" fill="#72c6ef"/>
    </g>
    <g transform="translate(-616 -2471)">
      <circle id="Ellipse_1-185" data-name="Ellipse 1" cx="3.5" cy="3.5" r="3.5" transform="translate(800 2903)" fill="#72c6ef"/>
    </g>
    <g transform="translate(-593 -2471)">
      <circle id="Ellipse_1-186" data-name="Ellipse 1" cx="3.5" cy="3.5" r="3.5" transform="translate(800 2903)" fill="#72c6ef"/>
    </g>
    <g transform="translate(-570 -2471)">
      <circle id="Ellipse_1-187" data-name="Ellipse 1" cx="3.5" cy="3.5" r="3.5" transform="translate(800 2903)" fill="#72c6ef"/>
    </g>
    <g transform="translate(-800 -2444)">
      <circle id="Ellipse_1-188" data-name="Ellipse 1" cx="3.5" cy="3.5" r="3.5" transform="translate(800 2903)" fill="#72c6ef"/>
    </g>
    <g transform="translate(-777 -2444)">
      <circle id="Ellipse_1-189" data-name="Ellipse 1" cx="3.5" cy="3.5" r="3.5" transform="translate(800 2903)" fill="#72c6ef"/>
    </g>
    <g transform="translate(-754 -2444)">
      <circle id="Ellipse_1-190" data-name="Ellipse 1" cx="3.5" cy="3.5" r="3.5" transform="translate(800 2903)" fill="#72c6ef"/>
    </g>
    <g transform="translate(-731 -2444)">
      <circle id="Ellipse_1-191" data-name="Ellipse 1" cx="3.5" cy="3.5" r="3.5" transform="translate(800 2903)" fill="#72c6ef"/>
    </g>
    <g transform="translate(-708 -2444)">
      <circle id="Ellipse_1-192" data-name="Ellipse 1" cx="3.5" cy="3.5" r="3.5" transform="translate(800 2903)" fill="#72c6ef"/>
    </g>
    <g transform="translate(-685 -2444)">
      <circle id="Ellipse_1-193" data-name="Ellipse 1" cx="3.5" cy="3.5" r="3.5" transform="translate(800 2903)" fill="#72c6ef"/>
    </g>
    <g transform="translate(-662 -2444)">
      <circle id="Ellipse_1-194" data-name="Ellipse 1" cx="3.5" cy="3.5" r="3.5" transform="translate(800 2903)" fill="#72c6ef"/>
    </g>
    <g transform="translate(-639 -2444)">
      <circle id="Ellipse_1-195" data-name="Ellipse 1" cx="3.5" cy="3.5" r="3.5" transform="translate(800 2903)" fill="#72c6ef"/>
    </g>
    <g transform="translate(-616 -2444)">
      <circle id="Ellipse_1-196" data-name="Ellipse 1" cx="3.5" cy="3.5" r="3.5" transform="translate(800 2903)" fill="#72c6ef"/>
    </g>
    <g transform="translate(-593 -2444)">
      <circle id="Ellipse_1-197" data-name="Ellipse 1" cx="3.5" cy="3.5" r="3.5" transform="translate(800 2903)" fill="#72c6ef"/>
    </g>
    <g transform="translate(-570 -2444)">
      <circle id="Ellipse_1-198" data-name="Ellipse 1" cx="3.5" cy="3.5" r="3.5" transform="translate(800 2903)" fill="#72c6ef"/>
    </g>
    <g transform="translate(-800 -2417)">
      <circle id="Ellipse_1-199" data-name="Ellipse 1" cx="3.5" cy="3.5" r="3.5" transform="translate(800 2903)" fill="#72c6ef"/>
    </g>
    <g transform="translate(-777 -2417)">
      <circle id="Ellipse_1-200" data-name="Ellipse 1" cx="3.5" cy="3.5" r="3.5" transform="translate(800 2903)" fill="#72c6ef"/>
    </g>
    <g transform="translate(-754 -2417)">
      <circle id="Ellipse_1-201" data-name="Ellipse 1" cx="3.5" cy="3.5" r="3.5" transform="translate(800 2903)" fill="#72c6ef"/>
    </g>
    <g transform="translate(-731 -2417)">
      <circle id="Ellipse_1-202" data-name="Ellipse 1" cx="3.5" cy="3.5" r="3.5" transform="translate(800 2903)" fill="#72c6ef"/>
    </g>
    <g transform="translate(-708 -2417)">
      <circle id="Ellipse_1-203" data-name="Ellipse 1" cx="3.5" cy="3.5" r="3.5" transform="translate(800 2903)" fill="#72c6ef"/>
    </g>
    <g transform="translate(-685 -2417)">
      <circle id="Ellipse_1-204" data-name="Ellipse 1" cx="3.5" cy="3.5" r="3.5" transform="translate(800 2903)" fill="#72c6ef"/>
    </g>
    <g transform="translate(-662 -2417)">
      <circle id="Ellipse_1-205" data-name="Ellipse 1" cx="3.5" cy="3.5" r="3.5" transform="translate(800 2903)" fill="#72c6ef"/>
    </g>
    <g transform="translate(-639 -2417)">
      <circle id="Ellipse_1-206" data-name="Ellipse 1" cx="3.5" cy="3.5" r="3.5" transform="translate(800 2903)" fill="#72c6ef"/>
    </g>
    <g transform="translate(-616 -2417)">
      <circle id="Ellipse_1-207" data-name="Ellipse 1" cx="3.5" cy="3.5" r="3.5" transform="translate(800 2903)" fill="#72c6ef"/>
    </g>
    <g transform="translate(-593 -2417)">
      <circle id="Ellipse_1-208" data-name="Ellipse 1" cx="3.5" cy="3.5" r="3.5" transform="translate(800 2903)" fill="#72c6ef"/>
    </g>
    <g transform="translate(-570 -2417)">
      <circle id="Ellipse_1-209" data-name="Ellipse 1" cx="3.5" cy="3.5" r="3.5" transform="translate(800 2903)" fill="#72c6ef"/>
    </g>
    <g transform="translate(-800 -2390)">
      <circle id="Ellipse_1-210" data-name="Ellipse 1" cx="3.5" cy="3.5" r="3.5" transform="translate(800 2903)" fill="#72c6ef"/>
    </g>
    <g transform="translate(-777 -2390)">
      <circle id="Ellipse_1-211" data-name="Ellipse 1" cx="3.5" cy="3.5" r="3.5" transform="translate(800 2903)" fill="#72c6ef"/>
    </g>
    <g transform="translate(-754 -2390)">
      <circle id="Ellipse_1-212" data-name="Ellipse 1" cx="3.5" cy="3.5" r="3.5" transform="translate(800 2903)" fill="#72c6ef"/>
    </g>
    <g transform="translate(-731 -2390)">
      <circle id="Ellipse_1-213" data-name="Ellipse 1" cx="3.5" cy="3.5" r="3.5" transform="translate(800 2903)" fill="#72c6ef"/>
    </g>
    <g transform="translate(-708 -2390)">
      <circle id="Ellipse_1-214" data-name="Ellipse 1" cx="3.5" cy="3.5" r="3.5" transform="translate(800 2903)" fill="#72c6ef"/>
    </g>
    <g transform="translate(-685 -2390)">
      <circle id="Ellipse_1-215" data-name="Ellipse 1" cx="3.5" cy="3.5" r="3.5" transform="translate(800 2903)" fill="#72c6ef"/>
    </g>
    <g transform="translate(-662 -2390)">
      <circle id="Ellipse_1-216" data-name="Ellipse 1" cx="3.5" cy="3.5" r="3.5" transform="translate(800 2903)" fill="#72c6ef"/>
    </g>
    <g transform="translate(-639 -2390)">
      <circle id="Ellipse_1-217" data-name="Ellipse 1" cx="3.5" cy="3.5" r="3.5" transform="translate(800 2903)" fill="#72c6ef"/>
    </g>
    <g transform="translate(-616 -2390)">
      <circle id="Ellipse_1-218" data-name="Ellipse 1" cx="3.5" cy="3.5" r="3.5" transform="translate(800 2903)" fill="#72c6ef"/>
    </g>
    <g transform="translate(-593 -2390)">
      <circle id="Ellipse_1-219" data-name="Ellipse 1" cx="3.5" cy="3.5" r="3.5" transform="translate(800 2903)" fill="#72c6ef"/>
    </g>
    <g transform="translate(-570 -2390)">
      <circle id="Ellipse_1-220" data-name="Ellipse 1" cx="3.5" cy="3.5" r="3.5" transform="translate(800 2903)" fill="#72c6ef"/>
    </g>
    <g transform="translate(-800 -2363)">
      <circle id="Ellipse_1-221" data-name="Ellipse 1" cx="3.5" cy="3.5" r="3.5" transform="translate(800 2903)" fill="#72c6ef"/>
    </g>
    <g transform="translate(-777 -2363)">
      <circle id="Ellipse_1-222" data-name="Ellipse 1" cx="3.5" cy="3.5" r="3.5" transform="translate(800 2903)" fill="#72c6ef"/>
    </g>
    <g transform="translate(-754 -2363)">
      <circle id="Ellipse_1-223" data-name="Ellipse 1" cx="3.5" cy="3.5" r="3.5" transform="translate(800 2903)" fill="#72c6ef"/>
    </g>
    <g transform="translate(-731 -2363)">
      <circle id="Ellipse_1-224" data-name="Ellipse 1" cx="3.5" cy="3.5" r="3.5" transform="translate(800 2903)" fill="#72c6ef"/>
    </g>
    <g transform="translate(-708 -2363)">
      <circle id="Ellipse_1-225" data-name="Ellipse 1" cx="3.5" cy="3.5" r="3.5" transform="translate(800 2903)" fill="#72c6ef"/>
    </g>
    <g transform="translate(-685 -2363)">
      <circle id="Ellipse_1-226" data-name="Ellipse 1" cx="3.5" cy="3.5" r="3.5" transform="translate(800 2903)" fill="#72c6ef"/>
    </g>
    <g transform="translate(-662 -2363)">
      <circle id="Ellipse_1-227" data-name="Ellipse 1" cx="3.5" cy="3.5" r="3.5" transform="translate(800 2903)" fill="#72c6ef"/>
    </g>
    <g transform="translate(-639 -2363)">
      <circle id="Ellipse_1-228" data-name="Ellipse 1" cx="3.5" cy="3.5" r="3.5" transform="translate(800 2903)" fill="#72c6ef"/>
    </g>
    <g transform="translate(-616 -2363)">
      <circle id="Ellipse_1-229" data-name="Ellipse 1" cx="3.5" cy="3.5" r="3.5" transform="translate(800 2903)" fill="#72c6ef"/>
    </g>
    <g transform="translate(-593 -2363)">
      <circle id="Ellipse_1-230" data-name="Ellipse 1" cx="3.5" cy="3.5" r="3.5" transform="translate(800 2903)" fill="#72c6ef"/>
    </g>
    <g transform="translate(-570 -2363)">
      <circle id="Ellipse_1-231" data-name="Ellipse 1" cx="3.5" cy="3.5" r="3.5" transform="translate(800 2903)" fill="#72c6ef"/>
    </g>
    <g transform="translate(-800 -2336)">
      <circle id="Ellipse_1-232" data-name="Ellipse 1" cx="3.5" cy="3.5" r="3.5" transform="translate(800 2903)" fill="#72c6ef"/>
    </g>
    <g transform="translate(-777 -2336)">
      <circle id="Ellipse_1-233" data-name="Ellipse 1" cx="3.5" cy="3.5" r="3.5" transform="translate(800 2903)" fill="#72c6ef"/>
    </g>
    <g transform="translate(-754 -2336)">
      <circle id="Ellipse_1-234" data-name="Ellipse 1" cx="3.5" cy="3.5" r="3.5" transform="translate(800 2903)" fill="#72c6ef"/>
    </g>
    <g transform="translate(-731 -2336)">
      <circle id="Ellipse_1-235" data-name="Ellipse 1" cx="3.5" cy="3.5" r="3.5" transform="translate(800 2903)" fill="#72c6ef"/>
    </g>
    <g transform="translate(-708 -2336)">
      <circle id="Ellipse_1-236" data-name="Ellipse 1" cx="3.5" cy="3.5" r="3.5" transform="translate(800 2903)" fill="#72c6ef"/>
    </g>
    <g transform="translate(-685 -2336)">
      <circle id="Ellipse_1-237" data-name="Ellipse 1" cx="3.5" cy="3.5" r="3.5" transform="translate(800 2903)" fill="#72c6ef"/>
    </g>
    <g transform="translate(-662 -2336)">
      <circle id="Ellipse_1-238" data-name="Ellipse 1" cx="3.5" cy="3.5" r="3.5" transform="translate(800 2903)" fill="#72c6ef"/>
    </g>
    <g transform="translate(-639 -2336)">
      <circle id="Ellipse_1-239" data-name="Ellipse 1" cx="3.5" cy="3.5" r="3.5" transform="translate(800 2903)" fill="#72c6ef"/>
    </g>
    <g transform="translate(-616 -2336)">
      <circle id="Ellipse_1-240" data-name="Ellipse 1" cx="3.5" cy="3.5" r="3.5" transform="translate(800 2903)" fill="#72c6ef"/>
    </g>
    <g transform="translate(-593 -2336)">
      <circle id="Ellipse_1-241" data-name="Ellipse 1" cx="3.5" cy="3.5" r="3.5" transform="translate(800 2903)" fill="#72c6ef"/>
    </g>
    <g transform="translate(-570 -2336)">
      <circle id="Ellipse_1-242" data-name="Ellipse 1" cx="3.5" cy="3.5" r="3.5" transform="translate(800 2903)" fill="#72c6ef"/>
    </g>
    <g transform="translate(-800 -2309)">
      <circle id="Ellipse_1-243" data-name="Ellipse 1" cx="3.5" cy="3.5" r="3.5" transform="translate(800 2903)" fill="#72c6ef"/>
    </g>
    <g transform="translate(-777 -2309)">
      <circle id="Ellipse_1-244" data-name="Ellipse 1" cx="3.5" cy="3.5" r="3.5" transform="translate(800 2903)" fill="#72c6ef"/>
    </g>
    <g transform="translate(-754 -2309)">
      <circle id="Ellipse_1-245" data-name="Ellipse 1" cx="3.5" cy="3.5" r="3.5" transform="translate(800 2903)" fill="#72c6ef"/>
    </g>
    <g transform="translate(-731 -2309)">
      <circle id="Ellipse_1-246" data-name="Ellipse 1" cx="3.5" cy="3.5" r="3.5" transform="translate(800 2903)" fill="#72c6ef"/>
    </g>
    <g transform="translate(-708 -2309)">
      <circle id="Ellipse_1-247" data-name="Ellipse 1" cx="3.5" cy="3.5" r="3.5" transform="translate(800 2903)" fill="#72c6ef"/>
    </g>
    <g transform="translate(-685 -2309)">
      <circle id="Ellipse_1-248" data-name="Ellipse 1" cx="3.5" cy="3.5" r="3.5" transform="translate(800 2903)" fill="#72c6ef"/>
    </g>
    <g transform="translate(-662 -2309)">
      <circle id="Ellipse_1-249" data-name="Ellipse 1" cx="3.5" cy="3.5" r="3.5" transform="translate(800 2903)" fill="#72c6ef"/>
    </g>
    <g transform="translate(-639 -2309)">
      <circle id="Ellipse_1-250" data-name="Ellipse 1" cx="3.5" cy="3.5" r="3.5" transform="translate(800 2903)" fill="#72c6ef"/>
    </g>
    <g transform="translate(-616 -2309)">
      <circle id="Ellipse_1-251" data-name="Ellipse 1" cx="3.5" cy="3.5" r="3.5" transform="translate(800 2903)" fill="#72c6ef"/>
    </g>
    <g transform="translate(-593 -2309)">
      <circle id="Ellipse_1-252" data-name="Ellipse 1" cx="3.5" cy="3.5" r="3.5" transform="translate(800 2903)" fill="#72c6ef"/>
    </g>
    <g transform="translate(-570 -2309)">
      <circle id="Ellipse_1-253" data-name="Ellipse 1" cx="3.5" cy="3.5" r="3.5" transform="translate(800 2903)" fill="#72c6ef"/>
    </g>
  </g>
</svg>
